<svg width="14" height="14" viewBox="0 0 14 14" fill="none" xmlns="http://www.w3.org/2000/svg">
<path d="M13.9974 3.45987C13.9897 3.38254 13.9596 3.30494 13.9067 3.24038C13.8863 3.21542 14.0952 3.42593 10.7894 0.120147C10.7106 0.0413432 10.6036 -2.73298e-05 10.4992 1.35454e-08C10.2505 1.35454e-08 1.47775 1.35454e-08 1.22996 1.35454e-08C0.551492 1.35454e-08 -0.000488281 0.551981 -0.000488281 1.23045V12.7694C-0.000488281 13.4478 0.551492 13.9998 1.22996 13.9998H12.7689C13.4473 13.9998 13.9993 13.4478 13.9993 12.7694C13.9993 2.81128 14.0004 3.49131 13.9974 3.45987ZM9.433 0.820301V3.49995C9.433 3.72611 9.24901 3.9101 9.02285 3.9101H8.50333V0.820301H9.433ZM7.68303 0.820301V3.9101H3.8823C3.65614 3.9101 3.47215 3.72611 3.47215 3.49995V0.820301H7.68303ZM9.433 8.77722H3.47215V8.2577C3.47215 8.03154 3.65614 7.84755 3.8823 7.84755H9.02285C9.24901 7.84755 9.433 8.03154 9.433 8.2577V8.77722ZM3.47215 13.1795V9.59752H9.433V13.1795H3.47215ZM13.179 12.7694C13.179 12.9955 12.9951 13.1795 12.7689 13.1795H10.2533C10.2533 12.6448 10.2533 8.86724 10.2533 8.2577C10.2533 7.57923 9.70132 7.02725 9.02285 7.02725H3.8823C3.20383 7.02725 2.65185 7.57923 2.65185 8.2577V13.1795H1.22999C1.00383 13.1795 0.81984 12.9955 0.81984 12.7694V1.23045C0.81984 1.00429 1.00383 0.820301 1.22999 0.820301H2.65185V3.49995C2.65185 4.17842 3.20383 4.7304 3.8823 4.7304H9.02285C9.70132 4.7304 10.2533 4.17842 10.2533 3.49995V0.820301H10.3295L13.179 3.66986V12.7694Z" fill="white"/>
</svg>
